<?xml version="1.0" encoding="UTF-8"?>
<svg xmlns="http://www.w3.org/2000/svg" viewBox="0 0 5009.61 1717.61">
  <defs>
    <style>
      .cls-1 {
        fill: #666;
      }

      .cls-1, .cls-2 {
        stroke-width: 0px;
      }

      .cls-2 {
        fill: #fff;
      }
    </style>
  </defs>
  <g id="Layer_3" data-name="Layer 3">
    <rect class="cls-1" x="1" width="5009" height="1718"/>
  </g>
  <g id="Layer_1" data-name="Layer 1">
    <path class="cls-2" d="M815.64,144.63l-1.34-1.63h-477.8l-133.13,755.03,67.16,81.54h477.8l133.13-755.03-65.82-79.91ZM812.41,153.66l58.38,70.88h-70.88l12.5-70.88ZM272.19,970.06l-59.33-72.03h72.03l-12.7,72.03ZM286.33,889.87h-73.38L342.19,156.92l60.31,74.14-116.17,658.81ZM348.97,151.15h455.73l-12.94,73.38h-381.59l-61.2-73.38ZM469.68,506.65l29.33-166.33h166.33l-29.33,166.33h-166.33ZM616.47,617.54l-29.33,166.33h-166.33l29.33-166.33h166.33ZM280.11,971.41l12.94-73.38h381.59l1.79,1.25,59.41,72.13h-455.73ZM742.62,965.65l-59.41-72.13-.9-2.01,116.17-658.81h73.38l-129.24,732.96Z"/>
    <g>
      <polygon class="cls-2" points="917.63 1481 1260.86 1481 1277.79 1384.99 1013.32 1384.99 1058.57 1128.38 1323.04 1128.38 1339.96 1032.37 996.73 1032.37 917.63 1481"/>
      <path class="cls-2" d="M1352.87,1481h343.23l79.1-448.63h-343.23l-79.1,448.63ZM1679.51,1128.38l-45.25,256.61h-185.7l45.25-256.61h185.7Z"/>
      <polygon class="cls-2" points="2078.44 1334.33 1952.52 1032.37 1867.22 1032.37 1788.12 1481 1866.89 1481 1920.13 1179.05 2046.05 1481 2131.35 1481 2210.46 1032.37 2131.69 1032.37 2078.44 1334.33"/>
      <polygon class="cls-2" points="2285.54 1128.38 2417.77 1128.38 2355.6 1481 2434.37 1481 2496.54 1128.38 2628.77 1128.38 2645.7 1032.37 2302.47 1032.37 2285.54 1128.38"/>
      <polygon class="cls-2" points="2658.61 1481 2737.38 1481 2799.55 1128.38 2985.25 1128.38 2971.09 1208.68 2812.41 1208.68 2795.48 1304.69 2824.63 1304.69 2903.56 1481 2997.01 1481 2923.89 1304.69 3032.93 1304.69 3080.95 1032.37 2737.71 1032.37 2658.61 1481"/>
      <path class="cls-2" d="M3093.86,1481h78.77l31.09-176.31h185.7l-31.09,176.31h78.77l79.1-448.63h-343.23l-79.1,448.63ZM3420.5,1128.38l-14.16,80.3h-185.7l14.16-80.3h185.7Z"/>
      <polygon class="cls-2" points="3529.1 1481 3872.33 1481 3889.26 1384.99 3624.8 1384.99 3670.04 1128.38 3934.51 1128.38 3951.44 1032.37 3608.21 1032.37 3529.1 1481"/>
      <polygon class="cls-2" points="4026.52 1128.38 4158.75 1128.38 4096.58 1481 4175.35 1481 4237.52 1128.38 4369.76 1128.38 4386.68 1032.37 4043.45 1032.37 4026.52 1128.38"/>
      <polygon class="cls-2" points="4805 1128.38 4821.93 1032.37 4478.7 1032.37 4430.68 1304.69 4695.15 1304.69 4680.99 1384.99 4416.52 1384.99 4399.59 1481 4742.83 1481 4790.84 1208.68 4526.38 1208.68 4540.54 1128.38 4805 1128.38"/>
      <path class="cls-2" d="M973.66,636.8h185.7l-31.09,176.31h78.77l79.1-448.63h-343.23l-79.1,448.63h78.77l31.09-176.31ZM1190.45,460.49l-14.16,80.3h-185.7l14.16-80.3h185.7Z"/>
      <polygon class="cls-2" points="1679.47 540.8 1415 540.8 1429.16 460.49 1693.63 460.49 1710.56 364.49 1367.32 364.49 1319.31 636.8 1583.77 636.8 1569.61 717.11 1305.15 717.11 1288.22 813.11 1631.45 813.11 1679.47 540.8"/>
      <polygon class="cls-2" points="2072.79 717.11 1808.33 717.11 1822.49 636.8 2086.95 636.8 2103.88 540.8 1839.42 540.8 1853.58 460.49 2118.04 460.49 2134.97 364.49 1791.74 364.49 1712.63 813.11 2055.87 813.11 2072.79 717.11"/>
      <polygon class="cls-2" points="2559.38 364.49 2321.94 364.49 2305.01 460.49 2463.69 460.49 2418.44 717.11 2232.74 717.11 2294.92 364.49 2216.15 364.49 2137.04 813.11 2480.28 813.11 2559.38 364.49"/>
    </g>
  </g>
</svg>