<?xml version="1.0" encoding="UTF-8"?>
<svg xmlns="http://www.w3.org/2000/svg" viewBox="0 0 5009.61 1717.61">
  <defs>
    <style>
      .cls-1 {
        fill: #999;
      }

      .cls-1, .cls-2, .cls-3 {
        stroke-width: 0px;
      }

      .cls-2 {
        fill: #000;
      }

      .cls-3 {
        fill: #f2f2f2;
      }
    </style>
  </defs>
  <g id="Layer_3" data-name="Layer 3">
    <rect class="cls-3" x="1" width="5009" height="1718"/>
  </g>
  <g id="Layer_1" data-name="Layer 1">
    <g>
      <polygon class="cls-2" points="912.63 1492 1255.86 1492 1272.79 1395.99 1008.32 1395.99 1053.57 1139.38 1318.04 1139.38 1334.96 1043.37 991.73 1043.37 912.63 1492"/>
      <path class="cls-2" d="M1347.87,1492h343.23l79.1-448.63h-343.23l-79.1,448.63ZM1674.51,1139.38l-45.25,256.61h-185.7l45.25-256.61h185.7Z"/>
      <polygon class="cls-2" points="2073.44 1345.33 1947.52 1043.37 1862.22 1043.37 1783.12 1492 1861.89 1492 1915.13 1190.05 2041.05 1492 2126.35 1492 2205.46 1043.37 2126.69 1043.37 2073.44 1345.33"/>
      <polygon class="cls-2" points="2280.54 1139.38 2412.77 1139.38 2350.6 1492 2429.37 1492 2491.54 1139.38 2623.77 1139.38 2640.7 1043.37 2297.47 1043.37 2280.54 1139.38"/>
      <polygon class="cls-2" points="2653.61 1492 2732.38 1492 2794.55 1139.38 2980.25 1139.38 2966.09 1219.68 2807.41 1219.68 2790.48 1315.69 2819.63 1315.69 2898.56 1492 2992.01 1492 2918.89 1315.69 3027.93 1315.69 3075.95 1043.37 2732.71 1043.37 2653.61 1492"/>
      <path class="cls-2" d="M3088.86,1492h78.77l31.09-176.31h185.7l-31.09,176.31h78.77l79.1-448.63h-343.23l-79.1,448.63ZM3415.5,1139.38l-14.16,80.3h-185.7l14.16-80.3h185.7Z"/>
      <polygon class="cls-2" points="3524.1 1492 3867.33 1492 3884.26 1395.99 3619.8 1395.99 3665.04 1139.38 3929.51 1139.38 3946.44 1043.37 3603.21 1043.37 3524.1 1492"/>
      <polygon class="cls-2" points="4021.52 1139.38 4153.75 1139.38 4091.58 1492 4170.35 1492 4232.52 1139.38 4364.76 1139.38 4381.68 1043.37 4038.45 1043.37 4021.52 1139.38"/>
      <polygon class="cls-2" points="4800 1139.38 4816.93 1043.37 4473.7 1043.37 4425.68 1315.69 4690.15 1315.69 4675.99 1395.99 4411.52 1395.99 4394.59 1492 4737.83 1492 4785.84 1219.68 4521.38 1219.68 4535.54 1139.38 4800 1139.38"/>
      <path class="cls-2" d="M968.66,727.8h185.7l-31.09,176.31h78.77l79.1-448.63h-343.23l-79.1,448.63h78.77l31.09-176.31ZM1185.45,551.49l-14.16,80.3h-185.7l14.16-80.3h185.7Z"/>
      <polygon class="cls-2" points="1674.47 631.8 1410 631.8 1424.16 551.49 1688.63 551.49 1705.56 455.49 1362.32 455.49 1314.31 727.8 1578.77 727.8 1564.61 808.11 1300.15 808.11 1283.22 904.11 1626.45 904.11 1674.47 631.8"/>
      <polygon class="cls-2" points="2067.79 808.11 1803.33 808.11 1817.49 727.8 2081.95 727.8 2098.88 631.8 1834.42 631.8 1848.58 551.49 2113.04 551.49 2129.97 455.49 1786.74 455.49 1707.63 904.11 2050.87 904.11 2067.79 808.11"/>
      <polygon class="cls-2" points="2554.38 455.49 2316.94 455.49 2300.01 551.49 2458.69 551.49 2413.44 808.11 2227.74 808.11 2289.92 455.49 2211.15 455.49 2132.04 904.11 2475.28 904.11 2554.38 455.49"/>
    </g>
    <g>
      <polygon class="cls-1" points="395.65 315.32 334.4 240.03 203.17 984.31 277.68 984.31 395.65 315.32"/>
      <polygon class="cls-3" points="414.23 876.68 583.14 876.68 612.92 707.78 444.02 707.78 414.23 876.68"/>
      <polygon class="cls-1" points="203.08 992.59 263.33 1065.74 276.22 992.59 203.08 992.59"/>
      <polygon class="cls-3" points="662.56 426.27 493.65 426.27 463.87 595.17 632.78 595.17 662.56 426.27"/>
      <polygon class="cls-1" points="790.92 308.7 804.06 234.18 341.29 234.18 403.44 308.7 790.92 308.7"/>
      <polygon class="cls-1" points="671.99 992.59 284.5 992.59 271.36 1067.11 734.14 1067.11 673.81 993.87 671.99 992.59"/>
      <polygon class="cls-3" points="799.2 308.7 871.18 308.7 811.89 236.72 799.2 308.7"/>
      <polygon class="cls-3" points="679.78 985.97 680.69 988.01 741.02 1061.26 872.26 316.98 797.74 316.98 679.78 985.97"/>
      <path class="cls-2" d="M813.8,225.9h-485.19l-135.19,766.69,68.2,82.8h485.19l135.19-766.69-66.83-81.14-1.36-1.66ZM804.06,234.18l-13.14,74.52h-387.49l-62.15-74.52h462.77ZM463.87,595.17l29.78-168.9h168.9l-29.78,168.9h-168.9ZM612.92,707.78l-29.78,168.9h-168.9l29.78-168.9h168.9ZM334.4,240.03l61.24,75.29-117.96,668.99h-74.52L334.4,240.03ZM203.08,992.59h73.15l-12.9,73.15-60.25-73.15ZM271.36,1067.11l13.14-74.52h387.49l1.82,1.27,60.33,73.25h-462.77ZM741.02,1061.26l-60.33-73.25-.91-2.04,117.96-668.99h74.52l-131.24,744.28ZM799.2,308.7l12.69-71.97,59.28,71.97h-71.97Z"/>
    </g>
  </g>
</svg>