<?xml version="1.0" encoding="UTF-8"?>
<svg xmlns="http://www.w3.org/2000/svg" viewBox="0 0 2868.61 2868.61">
  <defs>
    <style>
      .cls-1 {
        fill: #999;
      }

      .cls-1, .cls-2, .cls-3 {
        stroke-width: 0px;
      }

      .cls-2 {
        fill: #000;
      }

      .cls-3 {
        fill: #f2f2f2;
      }
    </style>
  </defs>
  <g id="Layer_3" data-name="Layer 3">
    <rect class="cls-3" width="2869" height="2869"/>
  </g>
  <g id="Layer_1" data-name="Layer 1">
    <g>
      <polygon class="cls-1" points="1077.25 617.74 923.33 428.52 593.5 2299.1 780.78 2299.1 1077.25 617.74"/>
      <polygon class="cls-3" points="1123.97 2028.58 1548.47 2028.58 1623.32 1604.08 1198.82 1604.08 1123.97 2028.58"/>
      <polygon class="cls-1" points="593.28 2319.91 744.7 2503.74 777.11 2319.91 593.28 2319.91"/>
      <polygon class="cls-3" points="1748.07 896.58 1323.57 896.58 1248.72 1321.08 1673.22 1321.08 1748.07 896.58"/>
      <polygon class="cls-1" points="2070.69 601.09 2103.71 413.81 940.64 413.81 1096.83 601.09 2070.69 601.09"/>
      <polygon class="cls-1" points="1771.78 2319.91 797.92 2319.91 764.9 2507.19 1927.97 2507.19 1776.35 2323.1 1771.78 2319.91"/>
      <polygon class="cls-3" points="2091.5 601.09 2272.39 601.09 2123.4 420.2 2091.5 601.09"/>
      <polygon class="cls-3" points="1791.36 2303.26 1793.65 2308.39 1945.28 2492.48 2275.11 621.9 2087.83 621.9 1791.36 2303.26"/>
      <path class="cls-2" d="M2128.19,393H908.79l-339.77,1926.91,171.4,208.09h1219.41l339.77-1926.91-167.97-203.93-3.43-4.16ZM2103.71,413.81l-33.02,187.28h-973.86l-156.19-187.28h1163.08ZM1248.72,1321.08l74.85-424.5h424.5l-74.85,424.5h-424.5ZM1623.32,1604.08l-74.85,424.5h-424.5l74.85-424.5h424.5ZM923.33,428.52l153.92,189.22-296.47,1681.36h-187.28L923.33,428.52ZM593.28,2319.91h183.83l-32.41,183.83-151.42-183.83ZM764.9,2507.19l33.02-187.28h973.86l4.57,3.19,151.63,184.09H764.9ZM1945.28,2492.48l-151.63-184.09-2.29-5.13,296.47-1681.36h187.28l-329.83,1870.58ZM2091.5,601.09l31.9-180.89,149,180.89h-180.89Z"/>
    </g>
  </g>
</svg>